<?xml version="1.0" standalone="no"?><!DOCTYPE svg PUBLIC "-//W3C//DTD SVG 1.1//EN" "http://www.w3.org/Graphics/SVG/1.1/DTD/svg11.dtd"><svg t="1709524612437" class="icon" viewBox="0 0 1024 1024" version="1.1" xmlns="http://www.w3.org/2000/svg" p-id="1926" xmlns:xlink="http://www.w3.org/1999/xlink" width="200" height="200"><path d="M0 0h1024v1024H0z" fill="#000000" opacity=".01" p-id="1927"></path><path d="M520 128C736.496 128 912 303.504 912 520S736.496 912 520 912C303.6 911.76 128.24 736.4 128 520 128 303.504 303.504 128 520 128z m0 60.288c-183.12 0.192-331.52 148.592-331.712 331.712 0 183.2 148.496 331.712 331.712 331.712 183.2 0 331.712-148.512 331.712-331.712S703.2 188.288 520 188.288z m-84.528 176.576l233.776 155.264-233.76 155.024V364.864z" fill="#A8ADBB" p-id="1928"></path></svg>