<?xml version="1.0" standalone="no"?><!DOCTYPE svg PUBLIC "-//W3C//DTD SVG 1.1//EN" "http://www.w3.org/Graphics/SVG/1.1/DTD/svg11.dtd"><svg t="1714995691128" class="icon" viewBox="0 0 1068 1024" version="1.1" xmlns="http://www.w3.org/2000/svg" p-id="2701" xmlns:xlink="http://www.w3.org/1999/xlink" width="208.59375" height="200"><path d="M89.043478 170.362435c0.089043-11.197217 4.763826-21.926957 13.022609-29.851826a45.501217 45.501217 0 0 1 31.142956-12.510609h802.103653c24.397913 0 44.165565 18.988522 44.165565 42.362435v683.27513a41.805913 41.805913 0 0 1-13.022609 29.851826 45.501217 45.501217 0 0 1-31.142956 12.510609H133.209043a45.189565 45.189565 0 0 1-31.232-12.421565A41.494261 41.494261 0 0 1 89.043478 853.637565V170.362435z m89.043479 42.963478v597.348174h712.347826V213.325913H178.086957z m294.822956 145.719652l217.221565 138.752c2.448696 1.558261 4.452174 3.673043 5.832348 6.144a16.517565 16.517565 0 0 1 0 16.11687 17.363478 17.363478 0 0 1-5.832348 6.144l-217.266087 138.752a18.342957 18.342957 0 0 1-25.110261-5.409392 16.539826 16.539826 0 0 1-2.537739-8.748521v-277.593044c0-3.094261 0.890435-6.121739 2.537739-8.748521a17.497043 17.497043 0 0 1 6.90087-6.277566 18.454261 18.454261 0 0 1 18.253913 0.868174z" fill="#ffffff" p-id="2702"></path></svg>