<?xml version="1.0" standalone="no"?><!DOCTYPE svg PUBLIC "-//W3C//DTD SVG 1.1//EN" "http://www.w3.org/Graphics/SVG/1.1/DTD/svg11.dtd"><svg t="1716365756899" class="icon" viewBox="0 0 1024 1024" version="1.1" xmlns="http://www.w3.org/2000/svg" p-id="19422" xmlns:xlink="http://www.w3.org/1999/xlink" width="200" height="200"><path d="M907.6 384h4.4c26.5 0 48-21.5 48-48s-21.5-48-48-48h-56.9l-73.6-135c-8.4-15.4-24.5-25-42.1-25h-455c-17.5 0-33.7 9.6-42.1 25l-73.6 135H112c-26.5 0-48 21.5-48 48s21.5 48 48 48h4.4l-46.5 85.2c-3.9 7.1-5.9 15-5.9 23V816h1.3c7.6 45.4 47.1 80 94.7 80s87.1-34.6 94.7-80h514.6c7.6 45.4 47.1 80 94.7 80s87.1-34.6 94.7-80h1.3V492.3c0-8-2.1-15.9-5.9-23L907.6 384zM256 672c-35.3 0-64-28.7-64-64s28.7-64 64-64 64 28.7 64 64-28.7 64-64 64z m512 0c-35.3 0-64-28.7-64-64s28.7-64 64-64 64 28.7 64 64-28.7 64-64 64z m40-240H216c-13.3 0-24-10.7-24-24s10.7-24 24-24h592c13.3 0 24 10.7 24 24s-10.7 24-24 24z" fill="#2567ff" p-id="19423"></path></svg>