<?xml version="1.0" standalone="no"?><!DOCTYPE svg PUBLIC "-//W3C//DTD SVG 1.1//EN" "http://www.w3.org/Graphics/SVG/1.1/DTD/svg11.dtd"><svg t="1718241025148" class="icon" viewBox="0 0 1024 1024" version="1.1" xmlns="http://www.w3.org/2000/svg" p-id="4345" xmlns:xlink="http://www.w3.org/1999/xlink" width="200" height="200"><path d="M512 0C229.248 0 0 229.248 0 512s229.248 512 512 512 512-229.248 512-512S794.752 0 512 0z" fill="#CFD3D8" p-id="4346"></path><path d="M775.296 697.685c21.333 21.334 21.333 56.235 0 77.611-21.333 21.333-56.235 21.333-77.61 0L512 589.611 326.315 775.253c-21.334 21.334-56.235 21.334-77.611 0-21.333-21.333-21.333-56.234 0-77.61L434.389 512 248.747 326.315c-21.334-21.334-21.334-56.235 0-77.611 21.333-21.333 56.234-21.333 77.61 0L512 434.389l185.685-185.685c21.334-21.333 56.235-21.333 77.611 0 21.333 21.333 21.333 56.235 0 77.61L589.611 512l185.685 185.685z" fill="#FAFAFA" p-id="4347"></path></svg>