<?xml version="1.0" standalone="no"?><!DOCTYPE svg PUBLIC "-//W3C//DTD SVG 1.1//EN" "http://www.w3.org/Graphics/SVG/1.1/DTD/svg11.dtd"><svg t="1716365735658" class="icon" viewBox="0 0 1024 1024" version="1.1" xmlns="http://www.w3.org/2000/svg" p-id="18377" xmlns:xlink="http://www.w3.org/1999/xlink" width="200" height="200"><path d="M213.450675 28.799277l601.492383 0 0 968.865544-601.492383 0 0-968.865544Z" fill="#FFFFFF" p-id="18378"></path><path d="M289.261325 19.020596l525.940429 0 0 396.088335-525.940429 0 0-396.088335Z" fill="#65A347" p-id="18379"></path><path d="M289.261325 19.020596l448.254238 0 0 411.1444-448.254238 0 0-411.1444Z" fill="#9BD37A" p-id="18380"></path><path d="M289.261325 444.367367l525.940429 0 0 560.61853-525.940429 0 0-560.61853Z" fill="#FFAC1F" p-id="18381"></path><path d="M289.261325 430.164996l448.254238 0 0 574.820901-448.254238 0 0-574.820901Z" fill="#FECD57" p-id="18382"></path><path d="M331.040612 650.004241a19.001168 19.001168 0 0 1-19.014103-19.014103V510.412271a19.014103 19.014103 0 0 1 38.015271 0v120.590802a19.001168 19.001168 0 0 1-19.001168 19.001168zM331.040612 348.701854a19.001168 19.001168 0 0 1-19.014103-19.014102v-105.366586a19.014103 19.014103 0 1 1 38.015271 0v105.37952a19.001168 19.001168 0 0 1-19.001168 19.001168z" fill="#231815" p-id="18383"></path><path d="M759.297705 1024H264.698209A75.02163 75.02163 0 0 1 189.767122 949.081848V74.91171A75.02163 75.02163 0 0 1 264.698209 0.006493H536.548138a19.014103 19.014103 0 1 1 0 38.015271H264.698209a36.941685 36.941685 0 0 0-36.915816 36.889946v874.170138a36.941685 36.941685 0 0 0 36.902881 36.902881h494.612431a36.941685 36.941685 0 0 0 36.902881-36.902881V772.535258a19.014103 19.014103 0 0 1 38.01527 0v176.54659a75.02163 75.02163 0 0 1-74.918151 74.918152zM815.214688 660.468465a19.001168 19.001168 0 0 1-19.014102-19.014103v-566.542652a36.941685 36.941685 0 0 0-36.902881-36.889946H659.816437a19.014103 19.014103 0 1 1 0-38.015271h99.481268a75.02163 75.02163 0 0 1 74.931086 74.905217v566.542652a19.001168 19.001168 0 0 1-19.014103 19.014103z" fill="#231815" p-id="18384"></path><path d="M190.776034 411.150894H833.659662v38.01527H190.776034z" fill="#231815" p-id="18385"></path></svg>