<?xml version="1.0" standalone="no"?><!DOCTYPE svg PUBLIC "-//W3C//DTD SVG 1.1//EN" "http://www.w3.org/Graphics/SVG/1.1/DTD/svg11.dtd"><svg t="1716366925555" class="icon" viewBox="0 0 1024 1024" version="1.1" xmlns="http://www.w3.org/2000/svg" p-id="24141" xmlns:xlink="http://www.w3.org/1999/xlink" width="200" height="200"><path d="M511.5904 510.464m-453.5808 0a453.5808 453.5808 0 1 0 907.1616 0 453.5808 453.5808 0 1 0-907.1616 0Z" fill="#72DB86" p-id="24142"></path><path d="M716.4416 239.5648l-128.7168-5.5296-76.5952 34.7648-10.9056 20.6336 58.0096 64.768-136.448-8.2944-39.9872 2.2528-109.312 358.8608 166.912 251.2384c23.5008 3.7376 47.616 5.7344 72.192 5.7344 248.9344 0 450.9696-200.5504 453.5296-448.8704l-248.6784-275.5584z" fill="#52C181" p-id="24143"></path><path d="M563.3024 426.7008c32.1024 0 62.3616 7.8336 89.0368 21.6576-38.912-73.8816-116.3776-124.2624-205.7216-124.2624-128.3584 0-232.3968 104.0384-232.3968 232.3968s104.0384 232.3968 232.3968 232.3968c6.0928 0 12.0832-0.3072 18.0736-0.768-57.1904-33.792-95.5904-96-95.5904-167.2704 0.0512-107.264 86.9376-194.1504 194.2016-194.1504zM397.824 384.3072l14.1824-15.616-5.9392-13.2096 23.8592 6.0416 29.7472-6.0416-6.912 13.056 15.2576 15.104-22.7328-0.256-14.8992 14.0288-12.4416-12.6976-20.1216-0.4096zM500.1728 289.4336s5.7344-62.1056 55.1424-84.1728 90.1632 4.096 100.4544 12.2368c10.2912 8.1408 32.6144 21.8112 60.672 22.0672-23.7568 28.7744-72.1408 69.5296-131.84 64.7168-30.464-3.584-47.0016-6.9632-63.7952-4.096 9.3696-12.9536 51.3024-56.832 114.3296-57.5488-27.2896-3.2768-85.8112-4.9664-134.9632 46.7968z" fill="#FFFFFF" p-id="24144"></path><path d="M617.8816 555.8272l19.4048-31.0272c-12.6976-4.352-25.3952-7.2704-37.7856-8.8576l18.3808 39.8848zM563.6096 653.9776l-5.12-3.2256 24.1152-38.5024-61.7472 11.1104c11.4176 11.52 25.9584 22.0672 42.752 30.6176zM588.4928 664.576c0.3072 0.1024 0.6656 0.256 0.9728 0.3584 15.8208 5.4272 31.744 8.704 47.1552 9.984l-23.1424-50.2784-24.9856 39.936zM497.4592 550.656c-0.6144 1.28-1.1776 2.6112-1.6384 3.9424-4.1984 12.288-2.56 25.856 3.7376 39.3216l63.744-11.4688-65.8432-31.7952zM563.0464 515.0208c-15.5648 1.3824-29.5424 5.2224-40.8576 11.1616l59.136 28.5696-18.2784-39.7312z" fill="#FFFFFF" p-id="24145"></path><path d="M646.5536 471.1936c-103.1168-29.3376-207.9744-0.3584-233.5232 103.7312-25.6 104.1408 38.0416 209.3056 142.1824 234.9056s206.9504-38.656 234.9056-142.1824c24.8832-92.3648-34.2016-165.2736-143.5648-196.4544z m115.5072 174.592c-9.6768 28.3136-35.0208 48.7936-71.2704 57.7536-12.8 3.1744-26.5216 4.7104-40.704 4.7104-23.0912 0-47.4112-4.1472-71.2704-12.288-83.3536-28.5696-133.4272-95.2832-114.0224-151.9616 19.4048-56.6784 99.8912-78.6944 183.2448-50.1248 83.3536 28.5184 133.4272 95.2832 114.0224 151.9104z" fill="#FFFFFF" p-id="24146"></path><path d="M668.3136 596.7872l64.5632 31.1808c2.048-13.056-1.792-27.2384-10.2912-40.96l-54.272 9.7792zM667.5968 538.112l-18.0224 28.7744 47.6672-8.6016a172.02176 172.02176 0 0 0-29.6448-20.1728zM672.1536 673.8432c3.6864-0.5632 7.2704-1.28 10.752-2.1504 13.4656-3.328 24.576-8.6528 32.9216-15.5136l-66.6624-32.2048 22.9888 49.8688z" fill="#FFFFFF" p-id="24147"></path></svg>