<?xml version="1.0" standalone="no"?><!DOCTYPE svg PUBLIC "-//W3C//DTD SVG 1.1//EN" "http://www.w3.org/Graphics/SVG/1.1/DTD/svg11.dtd"><svg t="1709524628080" class="icon" viewBox="0 0 1024 1024" version="1.1" xmlns="http://www.w3.org/2000/svg" p-id="2825" xmlns:xlink="http://www.w3.org/1999/xlink" width="200" height="200"><path d="M761.78515625 118.42578125H262.390625c-48.515625 0-87.890625 39.375-87.890625 87.890625v611.10351563c0 48.515625 39.375 87.890625 87.890625 87.890625h499.30664063c48.515625 0 87.890625-39.375 87.89062499-87.890625V206.31640625c0.08789063-48.515625-39.28710938-87.890625-87.80273437-87.890625zM295.26171875 295.17382812c5.09765625-5.09765625 12.12890625-8.26171875 19.86328125-8.26171874h281.25c15.55664063 0 28.125 12.56835938 28.125 28.125 0 7.82226563-3.1640625 14.85351563-8.26171875 19.95117187-5.09765625 5.09765625-12.12890625 8.26171875-19.86328125 8.26171875H315.125c-15.55664063 0-28.125-12.56835938-28.125-28.125 0-7.82226563 3.1640625-14.85351563 8.26171875-19.95117187z m0 168.75000001c5.09765625-5.09765625 12.12890625-8.26171875 19.86328125-8.26171876h281.25c15.55664063 0 28.125 12.56835938 28.125 28.125 0 7.734375-3.1640625 14.765625-8.26171875 19.86328125-5.09765625 5.09765625-12.12890625 8.26171875-19.86328125 8.26171875H315.125c-15.55664063 0-28.125-12.56835938-28.125-28.125 0-7.734375 3.1640625-14.765625 8.26171875-19.86328125z m152.31445313 208.56445312c-5.09765625 5.09765625-12.12890625 8.26171875-19.86328126 8.26171875h-112.49999999c-15.55664063 0-28.125-12.56835938-28.125-28.125 0-7.734375 3.1640625-14.765625 8.26171875-19.86328125s12.12890625-8.26171875 19.86328125-8.26171875h112.5c15.55664063 0 28.125 12.56835938 28.125 28.125 0 7.734375-3.1640625 14.765625-8.26171875 19.86328125zM823.1328125 484.75390625c-15.1171875 18.10546875-41.484375 27.94921875-69.34570313 23.64257813-17.578125-2.72460938-32.78320313-10.546875-43.94531249-21.53320313l-37.6171875 243.19335938c-0.3515625 2.28515625-1.14257813 4.48242188-2.28515625 6.41601562 0.26367188 3.69140625 0.17578125 7.47070313-0.43945313 11.25-5.71289063 36.9140625-51.94335938 60.38085938-103.359375 52.3828125-51.328125-7.99804688-88.33007813-44.296875-82.6171875-81.2109375 5.71289063-36.9140625 51.94335938-60.38085938 103.359375-52.3828125 21.796875 3.42773438 41.04492188 11.86523438 55.546875 23.37890625L683.29882813 425.8671875c1.40625-8.96484375 9.140625-15.29296875 17.92968749-15.1171875 0.79101563 0 1.58203125 0.08789063 2.37304688 0.17578125 2.63671875 0.43945313 5.00976563 1.40625 7.11914062 2.72460938 0.96679688 9.05273438 3.33984375 17.84179688 7.03125 25.92773437 4.48242188 12.48046875 13.359375 23.73046875 25.22460938 31.9921875 9.75585938 6.85546875 21.62109375 11.77734375 34.62890625 13.79882813 18.72070313 2.90039063 36.73828125-0.61523438 51.06445313-8.61328126-1.58203125 2.98828125-3.42773438 5.53710938-5.53710938 7.99804688z" fill="#eb425e" p-id="2826"></path></svg>