<?xml version="1.0" standalone="no"?><!DOCTYPE svg PUBLIC "-//W3C//DTD SVG 1.1//EN" "http://www.w3.org/Graphics/SVG/1.1/DTD/svg11.dtd"><svg t="1716365719902" class="icon" viewBox="0 0 1024 1024" version="1.1" xmlns="http://www.w3.org/2000/svg" p-id="17255" xmlns:xlink="http://www.w3.org/1999/xlink" width="200" height="200"><path d="M1023.910943 511.999898c5.11911 317.794367-194.116663 516.825376-511.91103 511.911029-317.794367 4.914346-516.825376-194.116663-511.91103-511.911029C-4.825463 194.20553 194.205546-4.825478 511.999913 0.088868c317.794367-4.914346 516.825376 194.116663 511.91103 511.91103z" fill="#8C50FF" p-id="17256"></path><path d="M1022.477592 566.671996C1006.915497 340.40732 852.318366 201.16752 614.382119 204.85328c-254.112635-4.095288-413.624112 155.416189-409.528824 409.528824-3.890524 237.936247 135.554041 392.533378 361.613952 408.095473 268.036615-16.381153 439.629192-187.97373 456.010345-455.805581z" fill="#8C43FF" p-id="17257"></path><path d="M1015.515602 629.944199C985.824762 491.523456 876.480566 407.160519 716.764325 409.617692c-190.635668-3.071466-310.218084 116.51095-307.146618 307.146618-2.457173 159.716241 81.905765 269.060437 220.121743 298.751277 211.112109-34.400421 351.375731-174.664043 385.776152-385.571388z" fill="#8639FF" p-id="17258"></path><path d="M997.701098 705.707031C964.734028 646.734881 902.076118 613.153517 819.146531 614.382104c-127.1587-2.047644-206.812056 77.605712-204.764412 204.764412-1.433351 82.929587 32.352777 145.587497 91.120163 178.554567a431.233852 431.233852 0 0 0 292.198816-291.994052z" fill="#8233FF" p-id="17259"></path><path d="M511.999913 511.999898m-327.623059 0a327.623059 327.623059 0 1 0 655.246118 0 327.623059 327.623059 0 1 0-655.246118 0Z" fill="#FFFFFF" p-id="17260"></path><path d="M503.604572 732.735934a167.292525 167.292525 0 0 1 53.648276-94.396394 71.667544 71.667544 0 0 1 39.314767-12.900158c17.609739 0 53.85304-8.600105 55.081627-39.519532S614.382119 509.542725 554.590911 511.999898c-22.72885 0-65.729376-4.504817-83.953409-27.84796-10.442985-13.309687-46.686286-40.952882-78.220006-20.476442-28.052724 17.404975-109.139432 34.605186-201.078652-10.23822h-1.433351a331.718347 331.718347 0 0 0 9.214399 157.668597q4.914346 15.357331 11.057278 30.100369a327.623059 327.623059 0 0 0 49.143459 81.905764q10.238221 12.0811 20.476441 23.343143A327.623059 327.623059 0 0 0 511.999913 839.622957h3.276231a258.412688 258.412688 0 0 1-11.671572-106.887023zM784.131817 327.711927l-19.247855-24.981258A327.623059 327.623059 0 0 0 552.952795 187.038776a63.476968 63.476968 0 0 1-9.419162 52.829218 73.919953 73.919953 0 0 0-4.504818 79.039063c10.238221 16.381153 31.124191 20.476441 38.905239 29.076547a61.429324 61.429324 0 0 1 9.828691 45.252935 33.990892 33.990892 0 0 0 0 34.195656 97.877389 97.877389 0 0 0 78.834299 36.65283 47.300579 47.300579 0 0 0 37.676652-38.700474c12.695394 4.300053 46.686286 3.276231 46.071993-26.414609A96.444038 96.444038 0 0 1 784.131817 327.711927z" fill="#CEC0F2" p-id="17261"></path></svg>