<?xml version="1.0" standalone="no"?><!DOCTYPE svg PUBLIC "-//W3C//DTD SVG 1.1//EN" "http://www.w3.org/Graphics/SVG/1.1/DTD/svg11.dtd"><svg t="1709524607271" class="icon" viewBox="0 0 1024 1024" version="1.1" xmlns="http://www.w3.org/2000/svg" p-id="1623" xmlns:xlink="http://www.w3.org/1999/xlink" width="200" height="200"><path d="M741 937.8c0 12.1-9.8 22-22 22H305c-12.1 0-22-9.8-22-22 0-12.1 9.8-22 22-22h185V800.9c-63.8-4.9-126-31.3-173.9-79.1l-0.2-0.1c-25.6-25.5-46.2-56.1-60.3-90.2-13.6-32.7-21.1-68.6-21.1-106.1V383.9l0.1-0.5v-0.5l0.1-0.6 0.1-0.5 0.1-0.5 0.1-0.6 0.1-0.5 0.1-0.5 0.2-0.5v-0.2l0.1-0.5 0.2-0.5 0.1-0.5 0.2-0.5 0.2-0.5v-0.1l0.2-0.4v-0.1l0.2-0.4v-0.1l0.3-0.4 0.2-0.5 0.2-0.4 0.2-0.5 0.3-0.5 0.2-0.4 0.3-0.5 0.3-0.4 0.3-0.5 0.3-0.4 0.3-0.4v-0.1l0.3-0.4 0.3-0.4 0.3-0.4 0.4-0.3 0.3-0.4 0.4-0.4 0.4-0.3 0.4-0.3 0.5-0.3 0.4-0.3 0.5-0.3 0.4-0.3 0.5-0.2v-0.1l0.4-0.2 0.5-0.3 0.4-0.2 0.5-0.2 0.4-0.2 0.5-0.2 0.5-0.2 0.5-0.2 0.5-0.2 0.5-0.2 0.5-0.2 0.5-0.2 0.5-0.1 0.5-0.1 0.5-0.1 0.5-0.1 0.5-0.1 0.6-0.1h0.5v-0.1h0.5v-0.1h77.2V244.3c0-49.4 20.3-94.4 52.9-127 32.6-32.6 77.6-52.8 127-52.8 49.5 0 94.5 20.2 127 52.8 32.7 32.6 52.9 77.6 52.9 127v118.4h75.5c12.2 0 22 9.9 22 22v140.9c0 37.5-7.5 73.3-21 106.1a278.96 278.96 0 0 1-60.1 90.2l-0.2 0.1c-48 47.9-110.3 74.3-174 79.2V916h185c12.6-0.2 22.4 9.6 22.4 21.8zM278.5 525.4c0 31.7 6.3 61.8 17.7 89.2 11.9 28.6 29.3 54.3 50.8 75.9l0.2 0.1v0.1c44.4 44.3 103.5 66.7 163 67.2 0.6-0.1 1.2-0.1 1.9-0.1h0.6c59.9-0.1 119.7-22.5 164.4-67.1v-0.1l0.1-0.1c21.6-21.6 39-47.3 50.7-75.7 11.3-27.3 17.5-57.3 17.6-88.9V406.5H692v118.3c0 49.5-20.2 94.6-52.9 127.1-32.6 32.6-77.6 52.9-127.1 52.9-49.4 0-94.4-20.2-127.1-52.9v-0.1c-32.6-32.6-52.9-77.6-52.9-127V406.5h-53.5v118.9z" fill="#2c2c2c" p-id="1624"></path><path d="M376.1 461.9h44.4c12.1 0 22 9.8 22 22s-9.9 22-22 22h-44.4v18.9c0 37.4 15.3 71.4 39.9 96.1l0.1-0.1c24.7 24.6 58.7 40 96 40 37.4 0 71.4-15.3 96-40 24.7-24.6 40-58.6 40-96v-18.9h-44.5c-12.2 0-22-9.9-22-22s9.9-22 22-22H648v-55.4h-38.8c-12.2 0-22-9.9-22-22s9.8-22 22-22H648v-55.4h-44.5c-12.2 0-22-9.8-22-22 0-12.1 9.9-22 22-22H648V244c0-37.4-15.3-71.4-39.9-95.9-24.7-24.6-58.7-39.9-96.1-39.9-37.4 0-71.4 15.3-96.1 39.9-24.6 24.6-39.8 58.5-39.8 95.9v19.1h44.4c12.1 0 22 9.9 22 22s-9.9 22-22 22h-44.4v55.4h38.7c12.1 0 22 9.9 22 22 0 12.2-9.8 22-22 22h-38.7v55.4z" fill="#F2F2F2" p-id="1625"></path></svg>