<?xml version="1.0" standalone="no"?><!DOCTYPE svg PUBLIC "-//W3C//DTD SVG 1.1//EN" "http://www.w3.org/Graphics/SVG/1.1/DTD/svg11.dtd"><svg t="1716365636474" class="icon" viewBox="0 0 1024 1024" version="1.1" xmlns="http://www.w3.org/2000/svg" p-id="10483" xmlns:xlink="http://www.w3.org/1999/xlink" width="200" height="200"><path d="M958.208 362.828h-152.21V92.918c0-24.1 28.2-37.174 46.592-21.6l84.51 71.564a59.662 59.662 0 0 1 21.106 45.53v174.416z" fill="#FF8354" p-id="10484"></path><path d="M937.102 142.882l-84.51-71.564C834.2 55.744 806 68.816 806 92.918v39.218c0-24.1 28.2-37.174 46.592-21.6l84.51 71.564a59.662 59.662 0 0 1 21.106 45.53V188.412c0-17.542-7.72-34.194-21.106-45.53z" fill="#FFAC8C" p-id="10485"></path><path d="M402.838 402.838m-392.836 0a392.836 392.836 0 1 0 785.672 0 392.836 392.836 0 1 0-785.672 0Z" fill="#6770E6" p-id="10486"></path><path d="M402.838 49.218c210.382 0 382.13 165.38 392.348 373.228 0.32-6.496 0.488-13.034 0.488-19.61C795.674 185.88 619.796 10 402.838 10 185.88 10 10 185.88 10 402.836c0 6.576 0.17 13.112 0.488 19.61C20.706 214.6 192.456 49.218 402.838 49.218z" fill="#8F95E6" p-id="10487"></path><path d="M402.838 402.838m-307.202 0a307.202 307.202 0 1 0 614.404 0 307.202 307.202 0 1 0-614.404 0Z" fill="#69EBFC" p-id="10488"></path><path d="M545.732 825.626H259.942v-42.822a12.924 12.924 0 0 1 12.924-12.924h259.942a12.924 12.924 0 0 1 12.924 12.924v42.822z" fill="#333399" p-id="10489"></path><path d="M768.322 1014H37.352C22.246 1014 10 1001.754 10 986.648v-133.67c0-15.106 12.246-27.352 27.352-27.352h730.97c15.106 0 27.352 12.246 27.352 27.352v133.67c0 15.106-12.246 27.352-27.352 27.352z" fill="#6770E6" p-id="10490"></path><path d="M768.322 974.782H37.352C22.246 974.782 10 962.534 10 947.43v39.218C10 1001.754 22.246 1014 37.352 1014h730.97c15.106 0 27.352-12.246 27.352-27.352v-39.218c0 15.104-12.246 27.352-27.352 27.352zM555.526 902.384H250.15c-42.392 0-76.758-34.366-76.758-76.758h458.89c0 42.392-34.364 76.758-76.756 76.758z" fill="#5A62C9" p-id="10491"></path><path d="M994.582 1014h-224.96c-10.724 0-19.418-8.694-19.418-19.418V472.332c0-10.724 8.694-19.418 19.418-19.418h224.962c10.724 0 19.418 8.694 19.418 19.418v522.252c-0.002 10.722-8.696 19.416-19.42 19.416z" fill="#D476E2" p-id="10492"></path><path d="M994.584 974.782h-224.96c-10.724 0-19.418-8.694-19.418-19.418v39.218c0 10.724 8.694 19.418 19.418 19.418h224.96c10.724 0 19.416-8.694 19.416-19.418v-39.218c0 10.724-8.694 19.418-19.416 19.418zM969.284 362.828H794.92a15.214 15.214 0 0 0-15.214 15.214v74.872H984.5v-74.872a15.216 15.216 0 0 0-15.216-15.214z" fill="#B665C2" p-id="10493"></path></svg>