<?xml version="1.0" standalone="no"?><!DOCTYPE svg PUBLIC "-//W3C//DTD SVG 1.1//EN" "http://www.w3.org/Graphics/SVG/1.1/DTD/svg11.dtd"><svg t="1709524617756" class="icon" viewBox="0 0 1024 1024" version="1.1" xmlns="http://www.w3.org/2000/svg" p-id="2229" xmlns:xlink="http://www.w3.org/1999/xlink" width="200" height="200"><path d="M722.50642179 111.40150715h13.15296911c108.92072412 0 197.22089196 88.30016784 197.22089196 197.22089196v447.02420244c0 108.92072412-88.30016784 197.22089196-197.22089196 197.22089196h-447.02420244c-108.92072412 0-197.22089196-88.30016784-197.22089196-197.22089196v-447.02420244c0-108.92072412 88.30016784-197.22089196 197.22089196-197.22089196h13.15296912v-19.7220892c0-11.73898813 6.25981172-22.59423811 16.43752915-28.47109665 10.16298847-5.86212956 22.69734089-5.86212956 32.87505832 0a32.87505831 32.87505831 0 0 1 16.43752915 28.47109665v19.7220892H656.7857631v-19.7220892c0-11.73898813 6.25981172-22.59423811 16.43752915-28.47109665a32.92513682 32.92513682 0 0 1 32.87505832 0 32.87505831 32.87505831 0 0 1 16.43752914 28.47109665v19.7220892z m0 65.73538766v19.72208919c0 11.73898813-6.25981172 22.59423811-16.43752915 28.47109664a32.92513682 32.92513682 0 0 1-32.87505831 0 32.85738356 32.85738356 0 0 1-16.43752917-28.47109664v-19.72208919H367.52354525v19.72208919c0 11.73898813-6.25981172 22.59423811-16.43752915 28.47109664a32.92513682 32.92513682 0 0 1-32.87505832 0 32.85738356 32.85738356 0 0 1-16.43752916-28.47109664v-19.72208919h-13.15296912c-72.6138161 0-131.47077533 58.87168821-131.47077532 131.47077532h709.98048206c0-72.6138161-58.85695924-131.47077533-131.47077534-131.47077532h-13.15296911zM545.86189922 440.09317442L380.67651436 653.08879193v52.53823163H543.96186226v72.4223395h52.53823163v-72.4223395h50.18159662v-44.0101587h-50.18159662v-221.52369044h-50.63819467z m-3.31401797 70.05097552h1.42870996v151.45798595h-118.33253516l116.9038252-151.45798595z m0 0z" fill="#eb425e" p-id="2230"></path></svg>