<?xml version="1.0" standalone="no"?><!DOCTYPE svg PUBLIC "-//W3C//DTD SVG 1.1//EN" "http://www.w3.org/Graphics/SVG/1.1/DTD/svg11.dtd"><svg t="1709524599094" class="icon" viewBox="0 0 1024 1024" version="1.1" xmlns="http://www.w3.org/2000/svg" p-id="1316" xmlns:xlink="http://www.w3.org/1999/xlink" width="200" height="200"><path d="M512 120c216.1 0 392 175.9 392 392S728.1 904 512 904 120 728.1 120 512s175.9-392 392-392m0-56C264.6 64 64 264.6 64 512s200.6 448 448 448 448-200.6 448-448S759.4 64 512 64z" fill="#2c2c2c" p-id="1317"></path><path d="M777.7 620.3c-14.1-23.5-36.1-23.5-50.2 0l-2 7.8c2.5 56.8-7.7 71.9-12.2 75.7-1.7 1.5-4.5 3.2-13.2 1.6l-102.6 0.2c-5.6 0.6-10.2 0.3-11.9-1.2-1.7-1.5-2.7-5.7-2.7-11.2v-113l55.1-0.1c26.5 2 46.9-3.9 60-17.1 12.4-12.5 17.8-30.9 16.2-53.8l-0.1-60.1c1.7-20.6-2.7-37.2-13.2-49.5-11.2-13.1-28.7-20.7-53.3-22.5h-36.3c7.7-13.6 15.4-29.2 23.2-46.9 6.7-18.5 5.9-33.9-2.4-45.7-10-14.2-29.3-21.2-59-21.2h-124c1.8-3.3 3.6-6.8 5.4-10.4l1.5-6.2c0-14.3-4.3-23.9-12.7-28.7-8.4-4.6-18.5-3.6-30.4 3.6l-5 5.1c-39.6 70.7-91.1 127.9-153.2 170.3l-4.2 4.3c-7.1 11.8-8.3 22-3.5 30.4 4.8 8.5 14.4 12.7 28.7 12.7l7.4-2.1c10.5-6.6 20.9-13.8 31.2-21.7-3 9.2-4.5 19.8-4.5 31.7v65.6c0 22.3 5.9 38.9 17.6 49.7 11 10 26.4 14.3 44.5 12.5h94c-25.6 58.8-93.7 104-202.7 134.4l-5 2.6c-11.6 9.2-16.6 18.9-14.9 28.8 1.8 9.7 9.7 17.1 23.6 21.7l8 0.3c133.7-34.9 218.2-98 251.4-187.7h2.3v117.2c0 20.7 5.9 36.8 17.6 47.5 12.4 11.5 30.6 16.2 53.3 14.6l103.1-0.1c19.6 2.4 35.4-2 48-13.5 21.7-19.6 31.2-58.6 29.1-119.1l-2-6.5zM564.5 317.8c6.7 0 11.2 0.4 14.3 0.9l-0.9 1.4c-7.5 17.7-17.6 36.8-30 57.1H380.8c-6.9 0-13.4 0.6-19.4 1.9 18.1-18.3 35.7-38.8 52.7-61.4h150.4zM660 511.1c0.8 6.2 0.2 10.8-1.7 12.7-0.9 0.9-4.8 3.8-19.4 2.2H536.4c3.9-36.5 6.2-68.2 6.9-94.5h99.9c7.2 0 12.3 1.4 14.6 3.9 2.3 2.6 3.1 8 2 17.1l0.2 58.6z m-295.9-63c0-12.7 3.9-16.6 16.6-16.6h108.4c-0.6 29.5-2.9 61.2-7 94.5l-98.8 0.1c-7.4 1-12.8 0.2-15.3-2.1-2.5-2.3-3.9-7.5-3.9-14.7v-61.2z" fill="#2c2c2c" p-id="1318"></path></svg>