<?xml version="1.0" standalone="no"?><!DOCTYPE svg PUBLIC "-//W3C//DTD SVG 1.1//EN" "http://www.w3.org/Graphics/SVG/1.1/DTD/svg11.dtd"><svg t="1709272382188" class="icon" viewBox="0 0 1024 1024" version="1.1" xmlns="http://www.w3.org/2000/svg" p-id="1602" xmlns:xlink="http://www.w3.org/1999/xlink" width="200" height="200"><path d="M966.32984 0H57.67016A57.67016 57.67016 0 0 0 0 57.67016v908.65968a57.67016 57.67016 0 0 0 57.67016 57.67016h908.65968a57.67016 57.67016 0 0 0 57.67016-57.67016V57.67016A57.67016 57.67016 0 0 0 966.32984 0zM651.790001 236.638863q48.245561 36.748536 98.686905 81.688086l-33.45486 34.009974q-44.939549-45.506999-93.75256-86.610095zM785.547765 419.764751H587.643513q6.315962 84.698036 22.475942 145.822239a623.639561 623.639561 0 0 0 104.706807-119.509843l39.474762 26.312396a792.973955 792.973955 0 0 1-129.378533 137.877943q15.35815 38.907312 36.736201 63.862763 27.965402 32.899747 48.788338 32.887412 11.50936 0 16.443706-18.084376 7.685243-28.50818 15.900928-92.642332a309.963233 309.963233 0 0 0 42.213323 15.888592q-9.868691 61.420263-19.737381 95.393229-12.619588 43.853993-53.722684 44.409108-47.147669-0.530442-89.360992-56.461246-18.627153-24.388001-32.887412-57.287748a818.866932 818.866932 0 0 1-129.378532 78.123021q-14.247922-21.390387-27.953066-34.540417 78.382074-37.266643 141.70206-86.067317-22.759668-72.621226-29.606072-175.971088H401.260957v90.717938q54.277798-9.584966 112.379713-20.563884 1.097892 24.671726 1.64067 43.311215-57.546802 10.966582-114.020383 21.933165v128.823419q0 62.481147-59.754922 63.048596-36.723865 0.530442-73.460065-1.653005a263.383014 263.383014 0 0 0-9.313576-46.592555 534.858354 534.858354 0 0 0 71.807059 5.477123q25.769618 0.555114 25.769618-26.312396v-114.020383q-54.277798 10.670522-107.445368 21.378051l-10.966582-47.147669q56.74497-9.054524 118.424286-19.737381v-98.686906H238.452235V379.204433h117.856836v-82.785977q-43.311216 5.760848-93.197446 11.521696a283.946898 283.946898 0 0 0-12.052138-43.86633q134.855656-12.607252 231.914227-32.887411l13.15003 43.853994q-41.399157 7.401518-94.838116 15.345814v88.818214h140.308108q-3.811782-67.168775-8.215685-162.302951h46.049777q1.899723 87.707987 5.748512 162.265944H785.547765z" fill="#1296db" p-id="1603"></path></svg>