<?xml version="1.0" standalone="no"?><!DOCTYPE svg PUBLIC "-//W3C//DTD SVG 1.1//EN" "http://www.w3.org/Graphics/SVG/1.1/DTD/svg11.dtd"><svg t="1709524625866" class="icon" viewBox="0 0 1024 1024" version="1.1" xmlns="http://www.w3.org/2000/svg" p-id="2676" xmlns:xlink="http://www.w3.org/1999/xlink" width="200" height="200"><path d="M773.700327 110.967324l-524.198833 0c-102.088096 0-185.011714 82.797751-185.011714 184.935989l0 431.848519c0 102.155634 82.833567 184.935989 185.011714 184.935989l524.198833 0c102.088096 0 185.011714-82.801844 185.011714-184.935989L958.712041 295.903314C958.713065 193.747679 875.879498 110.967324 773.700327 110.967324zM357.424482 696.962595c0 16.9613-13.68672 30.712489-30.833239 30.712489-17.029862 0-30.835286-13.772678-30.835286-30.712489L295.755957 527.120372c0-16.9613 13.68672-30.712489 30.835286-30.712489 17.029862 0 30.833239 13.776771 30.833239 30.712489L357.424482 696.962595zM542.438243 696.966689c0 16.9613-13.68672 30.707372-30.834262 30.707372-17.029862 0-30.839379-13.84124-30.839379-30.707372L480.764602 295.850102c0-16.95823 13.68672-30.704302 30.839379-30.704302 17.029862 0 30.834262 13.84124 30.834262 30.704302L542.438243 696.966689zM742.866065 696.921663c0 16.984836-13.687744 30.752398-30.835286 30.752398-17.029862 0-30.834262-13.912871-30.834262-30.752398L681.196517 434.653401c0-16.97972 13.68672-30.749328 30.834262-30.749328 17.029862 0 30.835286 13.913894 30.835286 30.749328L742.866065 696.921663z" fill="#eb425e" p-id="2677"></path></svg>