<?xml version="1.0" standalone="no"?><!DOCTYPE svg PUBLIC "-//W3C//DTD SVG 1.1//EN" "http://www.w3.org/Graphics/SVG/1.1/DTD/svg11.dtd"><svg t="1716365778046" class="icon" viewBox="0 0 1024 1024" version="1.1" xmlns="http://www.w3.org/2000/svg" p-id="20471" xmlns:xlink="http://www.w3.org/1999/xlink" width="200" height="200"><path d="M768 51.2 283.306667 51.2C238.933333 51.2 201.386667 88.746667 201.386667 133.12l0 747.52c0 44.373333 37.546667 81.92 81.92 81.92l204.8 0 112.64 0 167.253333 0c44.373333 0 81.92-37.546667 81.92-81.92L849.92 133.12C849.92 88.746667 815.786667 51.2 768 51.2zM709.973333 296.96c6.826667 6.826667 6.826667 20.48 0 27.306667l-64.853333 64.853333c-3.413333 3.413333-6.826667 6.826667-13.653333 6.826667s-10.24-3.413333-13.653333-6.826667c-6.826667-6.826667-6.826667-20.48 0-27.306667l64.853333-64.853333C692.906667 290.133333 703.146667 290.133333 709.973333 296.96zM447.146667 109.226667l160.426667 0c6.826667 0 13.653333 6.826667 13.653333 13.653333C621.226667 129.706667 614.4 136.533333 607.573333 136.533333l-160.426667 0c-6.826667 0-13.653333-6.826667-13.653333-13.653333C433.493333 116.053333 436.906667 109.226667 447.146667 109.226667zM344.746667 296.96c6.826667-6.826667 20.48-6.826667 27.306667 0l64.853333 64.853333c6.826667 6.826667 6.826667 20.48 0 27.306667-3.413333 3.413333-6.826667 6.826667-13.653333 6.826667s-10.24-3.413333-13.653333-6.826667l-64.853333-64.853333C337.92 314.026667 337.92 303.786667 344.746667 296.96zM716.8 552.96c10.24 0 17.066667 6.826667 17.066667 17.066667s-6.826667 17.066667-17.066667 17.066667L546.133333 587.093333l0 139.946667c0 10.24-6.826667 17.066667-17.066667 17.066667s-17.066667-6.826667-17.066667-17.066667l0-139.946667L334.506667 587.093333c-10.24 0-17.066667-6.826667-17.066667-17.066667s6.826667-17.066667 17.066667-17.066667l174.08 0 0-102.4L334.506667 450.56c-10.24 0-17.066667-6.826667-17.066667-17.066667s6.826667-17.066667 17.066667-17.066667L716.8 416.426667c10.24 0 17.066667 6.826667 17.066667 17.066667s-6.826667 17.066667-17.066667 17.066667L546.133333 450.56l0 102.4L716.8 552.96z" fill="#FF9000" p-id="20472"></path></svg>