<?xml version="1.0" standalone="no"?><!DOCTYPE svg PUBLIC "-//W3C//DTD SVG 1.1//EN" "http://www.w3.org/Graphics/SVG/1.1/DTD/svg11.dtd"><svg t="1716365662490" class="icon" viewBox="0 0 1024 1024" version="1.1" xmlns="http://www.w3.org/2000/svg" p-id="12805" xmlns:xlink="http://www.w3.org/1999/xlink" width="200" height="200"><path d="M261.546667 616.874667c73.514667 73.664 162.858667 103.509333 199.594666 66.688 36.757333-36.842667 6.976-126.421333-66.517333-200.085334-73.493333-73.664-162.837333-103.509333-199.594667-66.688-36.736 36.842667-6.954667 126.421333 66.538667 200.085334z" fill="#D70606" p-id="12806"></path><path d="M228.416 383.786667L494.506667 649.856l-33.344 33.365333c-27.626667 27.605333-112.938667-6.229333-186.410667-79.722666-73.493333-73.472-107.328-158.784-79.701333-186.410667l33.344-33.344z" fill="#F85600" p-id="12807"></path><path d="M228.150187 383.606187a188.394667 70.656 45 1 0 266.430293 266.430293 188.394667 70.656 45 1 0-266.430293-266.430293Z" fill="#FFB468" p-id="12808"></path><path d="M253.102633 391.939966a164.842667 58.88 45 1 0 233.122734 233.122735 164.842667 58.88 45 1 0-233.122734-233.122735Z" fill="#FF5C00" p-id="12809"></path><path d="M311.552 367.018667l199.573333 199.594666-33.344 33.344c-18.410667 18.410667-78.016-11.349333-133.12-66.453333-55.125333-55.125333-84.885333-114.730667-66.453333-133.12l33.344-33.365333z" fill="#EC0000" p-id="12810"></path><path d="M660.736 483.477333l16.725333 16.789334a23.466667 23.466667 0 0 1 0 33.130666l-50.005333 50.133334a23.466667 23.466667 0 0 1-33.237333 0l-16.64-16.682667 83.157333-83.370667z" fill="#FF7325" p-id="12811"></path><path d="M660.736 483.477333l16.725333 16.789334a23.466667 23.466667 0 0 1 0 33.130666l-24.96 25.045334-33.28-33.344 41.514667-41.6z" fill="#FFB64C" p-id="12812"></path><path d="M644.096 500.16l299.392 300.117333-33.28 33.344-299.370667-300.117333z" fill="#FFB64C" p-id="12813"></path><path d="M619.221333 525.098667l299.370667 300.117333-25.002667 25.066667L594.218667 550.186667z" fill="#FF7325" p-id="12814"></path><path d="M900.821333 749.866667h35.328a23.466667 23.466667 0 0 1 23.466667 23.466666v70.954667a23.466667 23.466667 0 0 1-23.466667 23.466667H865.493333a23.466667 23.466667 0 0 1-23.466666-23.466667v-35.626667a58.794667 58.794667 0 0 1 58.816-58.794666z" fill="#FF7325" p-id="12815"></path><path d="M411.456 200.362667l266.112 266.133333-116.693333 116.693333c-27.626667 27.626667-109.610667-9.557333-183.082667-83.029333-73.493333-73.493333-110.677333-155.456-83.050667-183.082667l116.714667-116.693333z" fill="#FF962A" p-id="12816"></path><path d="M506.218667 371.626667c73.472 73.664 152.789333 113.6 171.157333 95.189333 18.346667-18.410667-26.325333-93.077333-99.797333-166.741333-73.493333-73.664-147.946667-118.442667-166.314667-100.032-18.389333 18.410667 21.461333 97.92 94.933333 171.584z" fill="#FF5C00" p-id="12817"></path><path d="M659.008 485.290667L578.346667 565.973333c-13.418667 12.181333-46.016 6.101333-85.013334-14.784l86.698667-86.677333c37.930667 22.890667 68.458667 31.317333 78.976 20.778667z" fill="#FBBE60" p-id="12818"></path><path d="M392.896 218.666667c-10.517333 10.517333-2.090667 41.024 20.778667 78.976l-86.677334 86.677333c-20.864-38.997333-26.944-71.594667-14.762666-84.992l9.002666-8.96 71.68-71.722667z" fill="#FFD99F" p-id="12819"></path><path d="M540.672 437.12l-88.064 88.064a451.498667 451.498667 0 0 1-53.76-46.058667 451.498667 451.498667 0 0 1-46.037333-53.76l88.064-88.042666c13.397333 17.429333 29.077333 35.413333 46.72 53.056 17.664 17.642667 35.648 33.344 53.077333 46.741333z" fill="#FFCB79" p-id="12820"></path><path d="M743.936 399.850667h-42.965333a56.96 56.96 0 0 0-37.248 13.909333l-3.008 2.773333c-14.293333 13.226667-74.965333-15.061333-129.749334-69.824-55.104-55.125333-83.392-116.202667-69.589333-130.005333l-0.213333 0.256h-0.042667c10.666667-10.666667 16.682667-25.152 16.682667-40.256V133.76l266.133333 266.112z" fill="#EC0000" p-id="12821"></path><path d="M511.146667 100.330667l266.090666 266.112-33.344 33.344c-18.410667 18.432-92.906667-26.218667-166.4-99.712-73.493333-73.472-118.122667-147.968-99.712-166.4l33.344-33.344z" fill="#FF7325" p-id="12822"></path><path d="M510.880854 100.17152a188.394667 47.104 45 1 0 266.430292 266.430293 188.394667 47.104 45 1 0-266.430292-266.430293Z" fill="#FFB468" p-id="12823"></path><path d="M544.174633 100.163966a164.842667 47.104 45 1 0 233.122734 233.122735 164.842667 47.104 45 1 0-233.122734-233.122735Z" fill="#FFD3A5" p-id="12824"></path><path d="M384 928.554667c129.6 0 234.666667-26.389333 234.666667-58.944C618.666667 837.056 513.6 810.666667 384 810.666667S149.333333 837.056 149.333333 869.610667c0 32.554667 105.066667 58.944 234.666667 58.944z" fill="#D70606" p-id="12825"></path><path d="M149.333333 810.666667h469.333334v53.333333H149.333333V810.666667z" fill="#F56A00" p-id="12826"></path><path d="M384 916.757333c129.6 0 234.666667-26.432 234.666667-58.986666S513.6 810.666667 384 810.666667s-234.666667 14.549333-234.666667 47.104c0 32.554667 105.066667 58.986667 234.666667 58.986666z" fill="#F56A00" p-id="12827"></path><path d="M149.333333 805.610667a234.666667 58.944 0 1 0 469.333334 0 234.666667 58.944 0 1 0-469.333334 0Z" fill="#FFB468" p-id="12828"></path><path d="M170.666667 770.24h28.522666C236.074667 756.181333 305.024 746.666667 384 746.666667s147.925333 9.493333 184.810667 23.594666H597.333333v23.573334c0 26.026667-95.509333 47.146667-213.333333 47.146666s-213.333333-21.12-213.333333-47.146666v-23.594667z" fill="#FF8910" p-id="12829"></path><path d="M170.666667 772.501333a213.333333 47.168 0 1 0 426.666666 0 213.333333 47.168 0 1 0-426.666666 0Z" fill="#FFD3A5" p-id="12830"></path><path d="M277.333333 770.133333a106.666667 23.466667 0 1 0 213.333334 0 106.666667 23.466667 0 1 0-213.333334 0Z" fill="#FFB468" p-id="12831"></path></svg>