<?xml version="1.0" standalone="no"?><!DOCTYPE svg PUBLIC "-//W3C//DTD SVG 1.1//EN" "http://www.w3.org/Graphics/SVG/1.1/DTD/svg11.dtd"><svg t="1709524623590" class="icon" viewBox="0 0 1024 1024" version="1.1" xmlns="http://www.w3.org/2000/svg" p-id="2527" xmlns:xlink="http://www.w3.org/1999/xlink" width="200" height="200"><path d="M596.992 512q0 34.016-24 59.008-12 12-27.488 18.496T512.992 596q-34.016 0-59.008-24.992-4.992-4.992-8.51199999-10.016t-6.49600001-11.008-4.992-12.512-3.48799999-12.992-1.50400001-12.512q0-35.00800001 24.992-59.488t59.488-24.512 59.488 24q7.008 8 12.992 17.504t8.512 20.512T596.96 512z m0 332q0 35.00800001-24 59.008-8 8-17.504 13.504t-20.512 8.512-22.016 3.008q-34.016 0-59.008-24.992-6.016-4.992-10.496-12t-7.488-14.496-4.992-16-2.016-16.512q0-35.00800001 24.992-59.488t59.488-24.51199999 59.488 24.99199999q11.008 11.008 17.504 27.008t6.496 32z m0-664.992q0 35.00800001-24 59.008-8 8-17.504 13.504t-20.512 8.512-22.016 3.00800001q-34.016 0-59.008-24.51200001T428.96 179.04000001t24.992-59.00800001q12-12 27.488-18.496t31.488-6.496q35.00800001 0 60 24.992 11.008 11.008 17.504 27.008t6.496 32z" fill="#707070" p-id="2528"></path></svg>