<?xml version="1.0" standalone="no"?><!DOCTYPE svg PUBLIC "-//W3C//DTD SVG 1.1//EN" "http://www.w3.org/Graphics/SVG/1.1/DTD/svg11.dtd"><svg t="1709524609985" class="icon" viewBox="0 0 1024 1024" version="1.1" xmlns="http://www.w3.org/2000/svg" p-id="1777" xmlns:xlink="http://www.w3.org/1999/xlink" width="200" height="200"><path d="M811.81 332.78H212.19c-24.3 0-44-19.7-44-44s19.7-44 44-44h599.63c24.3 0 44 19.7 44 44-0.01 24.3-19.71 44-44.01 44zM811.81 556H212.19c-24.3 0-44-19.7-44-44s19.7-44 44-44h599.63c24.3 0 44 19.7 44 44-0.01 24.3-19.71 44-44.01 44zM811.81 779.22H212.19c-24.3 0-44-19.7-44-44s19.7-44 44-44h599.63c24.3 0 44 19.7 44 44-0.01 24.3-19.71 44-44.01 44z" fill="#2c2c2c" p-id="1778"></path></svg>