<?xml version="1.0" standalone="no"?><!DOCTYPE svg PUBLIC "-//W3C//DTD SVG 1.1//EN" "http://www.w3.org/Graphics/SVG/1.1/DTD/svg11.dtd"><svg t="1709524620959" class="icon" viewBox="0 0 1085 1024" version="1.1" xmlns="http://www.w3.org/2000/svg" p-id="2378" xmlns:xlink="http://www.w3.org/1999/xlink" width="211.9140625" height="200"><path d="M417.97014893 161.40298467C142.59701533 267.52238808 121.10447744 279.61194043 88.86567148 344.08955234c-22.83582129 45.6716417-26.86567148 79.25373105-26.86567148 255.22388086 0 237.76119404 16.11940342 288.80597021 107.46268682 335.82089532 48.35820938 24.17910469 77.91044766 26.86567148 369.40298466 26.86567148s321.04477617-2.6865668 369.40298555-26.86567148c91.34328339-47.0149251 107.46268682-98.05970127 107.46268594-335.82089532s-16.11940342-288.80597021-107.46268594-335.82089619c-45.6716417-24.17910469-79.25373105-26.86567148-271.34328427-26.86567149l-218.95522383-1.34328339 130.2985081-49.70149278c137.0149251-52.38805957 167.91044766-71.19402979 153.13432764-95.37313447-16.11940342-25.52238808-64.47761191-13.43283574-283.43283574 71.19402979z m56.41791065 338.50746299c56.41791065 56.41791065 32.23880596 145.07462724-61.79104425 218.95522382-28.20895489 22.83582129-56.41791065 41.64179062-61.79104512 41.64179151-5.37313447 0-33.58208935-18.80597021-61.79104511-41.64179151-94.02985107-73.88059658-118.20895488-162.53731318-61.79104424-218.95522382 26.86567148-26.86567148 45.6716417-32.23880596 123.58208935-32.23880596 77.91044766 0 96.71641787 5.37313447 123.58208936 32.23880596z m377.4626868 41.6417915c4.02985107 30.89552256 1.3432834 30.89552256-130.29850722 30.89552168-134.3283583 0-158.50746299-8.05970127-143.73134385-48.3582085 6.71641787-16.11940342 32.23880596-18.80597021 138.35820938-16.11940341 124.92537276 4.02985107 131.64179062 5.37313447 135.67164169 33.58209023z m-5.37313447 106.11940254c12.08955234 4.02985107 21.49253701 20.14925362 21.49253702 33.58208936 0 22.83582129-12.08955234 25.52238808-139.7014919 25.52238808-142.38805957 0-173.28358213-10.74626894-142.38806045-47.0149251 12.08955234-14.77611914 47.0149251-20.14925362 127.61194043-20.14925361 61.79104512 0 120.89552256 4.02985107 132.9850749 8.05970127z" fill="#eb425e" p-id="2379"></path></svg>