<?xml version="1.0" standalone="no"?><!DOCTYPE svg PUBLIC "-//W3C//DTD SVG 1.1//EN" "http://www.w3.org/Graphics/SVG/1.1/DTD/svg11.dtd"><svg t="1709195087957" class="icon" viewBox="0 0 1024 1024" version="1.1" xmlns="http://www.w3.org/2000/svg" p-id="1656" xmlns:xlink="http://www.w3.org/1999/xlink" width="200" height="200"><path d="M787.932 225.86233333c81.854 0 102.79 149.097 79.819 340.208-23.044 191.402-80.256 333.445-164.289 333.445-61.499 0-117.182-66.733-201.652-216.19l-19.335 30.094c-84.762 129.903-138.119 186.096-191.84 186.096-79.236 0-125.251-134.992-137.827-318.907l-1.889-32.202c-8.434-183.624 20.864-322.544 98.062-322.544 57.648 0 92.249 43.981 200.418 243.526l55.319 103.077 63.534-103.514 37.075-59.101c92.103-144.299 131.647-183.988 182.605-183.988z m0 55.828c-27.987 0-76.982 63.243-181.37 231.675l-71.021 115.875 16.648 29.584c70.511 123.435 120.233 184.862 151.2 184.862 39.765 0 89.632-123.727 108.898-284.307 18.173-151.564 0.578-277.689-24.355-277.689z m-538.951 0c-25.443 0-50.158 126.489-41.432 279.364 8.939 158.473 49.066 282.705 83.014 282.705 28.352 0 81.417-61.718 161.381-186.314l18.898-29.876-62.515-116.458-32.347-58.663c-70.007-125.397-104.173-170.758-126.999-170.758z m0 0" fill="#ea9518" p-id="1657"></path></svg>