<?xml version="1.0" standalone="no"?><!DOCTYPE svg PUBLIC "-//W3C//DTD SVG 1.1//EN" "http://www.w3.org/Graphics/SVG/1.1/DTD/svg11.dtd"><svg t="1716365798115" class="icon" viewBox="0 0 1024 1024" version="1.1" xmlns="http://www.w3.org/2000/svg" p-id="21651" xmlns:xlink="http://www.w3.org/1999/xlink" width="200" height="200"><path d="M512.5 932.2C744.7 932.2 933 744 933 511.8S744.7 91.3 512.5 91.3 92 279.5 92 511.8c0.1 232.2 188.3 420.4 420.5 420.4z" fill="#FFC629" p-id="21652"></path><path d="M512.5 959.6c-246.9 0-447.8-200.9-447.8-447.8S265.6 64 512.5 64s447.8 200.9 447.8 447.8-200.9 447.8-447.8 447.8z m0-841c-216.8 0-393.1 176.4-393.1 393.1s176.4 393.1 393.1 393.1 393.1-176.4 393.1-393.1-176.3-393.1-393.1-393.1z" fill="#101820" p-id="21653"></path><path d="M933 539.1H92.1c-15.1 0-27.3-12.2-27.3-27.3 0-15.1 12.2-27.3 27.3-27.3H933c15.1 0 27.3 12.2 27.3 27.3 0 15.1-12.2 27.3-27.3 27.3z" fill="#101820" p-id="21654"></path><path d="M512.5 959.6c-15.1 0-27.3-12.2-27.3-27.3v-841c0-15.1 12.2-27.3 27.3-27.3s27.3 12.2 27.3 27.3v840.9c0.1 15.1-12.2 27.4-27.3 27.4z" fill="#101820" p-id="21655"></path><path d="M743.8 364.6l84.1-126.1 63.1 84.1 42 189.2L912 659l-84.1 126.1-105.1-168.2-21-126.1 42-126.2zM281.3 364.6l-84.1-126.1-63.1 84.1-42 189.2 21 147.2 84.1 126.1 105.1-168.2 21-126.1-42-126.2z" fill="#FFFFFF" p-id="21656"></path><path d="M960.3 511.8c0-105.8-36.9-203.2-98.5-279.9-1-1.9-2.2-3.7-3.6-5.4-1.2-1.4-2.6-2.7-4-3.8C772 125.6 649.3 64 512.5 64 375.7 64 253 125.7 170.8 222.7c-1.4 1.1-2.7 2.3-3.9 3.7-1.5 1.7-2.7 3.5-3.6 5.4-61.6 76.7-98.5 174.1-98.5 279.9 0 105.8 36.9 203.2 98.5 279.9 1 1.9 2.2 3.8 3.7 5.5 1.2 1.4 2.6 2.7 4 3.8 82.2 97 204.9 158.6 341.7 158.6 136.8 0 259.5-61.7 341.7-158.6 1.4-1.1 2.8-2.4 4-3.8 1.5-1.7 2.7-3.5 3.7-5.5 61.3-76.7 98.2-174 98.2-279.8zM833.4 738.7C764.5 672.1 731 597.6 731 511.8c0-85.8 33.6-160.3 102.4-226.9 45.5 64.1 72.3 142.5 72.3 226.9-0.1 84.4-26.8 162.8-72.3 226.9zM191.7 284.8C260.5 351.5 294 426 294 511.8c0 85.8-33.5 160.3-102.4 226.9-45.5-64.1-72.3-142.5-72.3-226.9 0.1-84.5 26.9-162.8 72.4-227z m320.8 620.1c-112.6 0-214.4-47.6-286.1-123.8 81.2-77.4 122.3-167.9 122.3-269.3s-41.1-191.9-122.3-269.3c71.7-76.2 173.5-123.8 286.1-123.8 112.6 0 214.4 47.6 286.1 123.8-81.2 77.4-122.4 167.9-122.4 269.3s41.1 191.9 122.4 269.3c-71.7 76.2-173.4 123.8-286.1 123.8z" fill="#101820" p-id="21657"></path></svg>