<?xml version="1.0" standalone="no"?><!DOCTYPE svg PUBLIC "-//W3C//DTD SVG 1.1//EN" "http://www.w3.org/Graphics/SVG/1.1/DTD/svg11.dtd"><svg t="1709446349996" class="icon" viewBox="0 0 1024 1024" version="1.1" xmlns="http://www.w3.org/2000/svg" p-id="3471" xmlns:xlink="http://www.w3.org/1999/xlink" width="200" height="200"><path d="M1018.442953 555.281063l-400.186194-5.875364 392.025859 63.207201a506.123139 506.123139 0 0 1-6.478612 28.022907l-388.460682-74.391536 370.873384 128.85649a505.510193 505.510193 0 0 1-11.042736 26.407133l-365.626484-139.187355 339.399743 189.367503a510.440921 510.440921 0 0 1-15.230557 24.091126L601.049643 597.147638l298.811433 243.349471a512.702616 512.702616 0 0 1-18.927633 21.173811L590.105832 610.271677l250.415813 289.692884a511.55819 511.55819 0 0 1-22.079653 17.742474L577.049683 621.296956l195.520245 327.456984a509.482707 509.482707 0 0 1-24.647822 13.865006l-185.64521-332.73104 135.453424 355.819339a503.966188 503.966188 0 0 1-26.575887 9.615114l-124.916951-359.539692 71.625518 374.023463a508.629237 508.629237 0 0 1-27.795962 5.163493l-60.650671-376.166837 5.603806 381.743487c-8.076928 0.380182-16.19653 0.59161-24.366565 0.591609-1.315119 0-2.62248-0.038794-3.937599-0.048492l5.611564-382.234232-61.077406 378.818413a508.101637 508.101637 0 0 1-28.088857-4.044284l72.327691-377.689504-126.856655 365.1241a505.292946 505.292946 0 0 1-27.109306-8.699573l137.889692-362.218424-190.027002 340.582963a506.720568 506.720568 0 0 1-25.367451-13.170591l200.567354-335.910216-248.840773 305.553845a511.946131 511.946131 0 0 1-22.911786-17.307981l258.628521-299.189675L149.83953 871.433451a513.804368 513.804368 0 0 1-19.781103-21.018634l310.377889-252.766735L93.727767 804.663013a509.288736 509.288736 0 0 1-16.021957-24.197809l354.139556-197.591849-382.461177 145.596138a505.777872 505.777872 0 0 1-11.678959-26.744642l388.245375-134.89091L18.639878 644.835266a507.88827 507.88827 0 0 1-6.851036-28.533049l411.141644-66.287451-419.984755 6.16438a513.862559 513.862559 0 0 1-1.728277-29.44277l421.66066 6.189596L3.077631 465.239994a511.286632 511.286632 0 0 1 3.489528-29.435012l419.22633 80.282418L19.493347 374.923486a505.110614 505.110614 0 0 1 8.786861-28.445762l403.307177 153.531467L52.278228 288.375824a507.603133 507.603133 0 0 1 13.890222-26.453686l373.918719 223.261894-339.477331-276.46604a512.524163 512.524163 0 0 1 18.518356-23.563527l331.902786 286.905529-288.061592-333.241183a511.763799 511.763799 0 0 1 22.533544-19.860631l278.584197 342.076535L237.302733 81.217355a508.183105 508.183105 0 0 1 25.850438-15.383794l215.706746 386.610204L321.160025 38.188896a507.03286 507.03286 0 0 1 28.259551-10.363839l145.479755 418.723947L411.573517 11.428737a508.113276 508.113276 0 0 1 29.681354-4.934607l70.465575 437.034754L505.236014 1.83884c1.807804-0.017457 3.60591-0.06789 5.417594-0.06789 8.259261 0 16.466149 0.213367 24.630364 0.603248l-6.474732 441.100375L598.797647 9.388168a507.028981 507.028981 0 0 1 29.382639 6.024722l-82.534414 430.977058L688.972556 33.867235a506.871865 506.871865 0 0 1 27.698976 11.292958l-154.947452 407.025591L772.624239 74.189806a509.579692 509.579692 0 0 1 25.093954 16.080148L576.54924 460.683628 847.025474 128.563595a512.035358 512.035358 0 0 1 21.714988 20.231115l-279.065244 322.83273 320.311114-276.885017a511.507758 511.507758 0 0 1 17.695922 23.650813L600.700497 484.683589l359.062525-214.391627a508.396472 508.396472 0 0 1 13.157013 26.281052L609.289507 499.456376l385.768372-146.853066a506.6391 506.6391 0 0 1 8.301934 28.028726l-388.175545 134.865694 399.990284-76.59892a512.02178 512.02178 0 0 1 3.281979 28.886075l-400.252144 64.53202 401.898953-5.898641a515.394925 515.394925 0 0 1-1.660387 28.862799z m-482.11154-15.494357l-0.479107-2.715586-0.944636-2.593385-1.37913-2.387776-1.77289-2.112338-2.112337-1.772889-2.387776-1.37913-2.591445-0.942696-1.877634-0.33169-0.839892-0.147417h-2.758259l-2.715586 0.479107-2.591445 0.942696-2.389715 1.37913-2.112338 1.772889-1.77289 2.112338-1.37913 2.387776-0.942696 2.593385-0.479107 2.715586v2.758259l0.479107 2.715586 0.942696 2.591445 1.37913 2.389715 1.77289 2.112338 2.112338 1.77289 2.389715 1.37913 2.591445 0.942696 2.715586 0.479107h2.758259l2.717526-0.479107 2.591445-0.942696 2.387776-1.37913 2.112337-1.77289 1.77289-2.112338 1.37913-2.389715 0.944636-2.591445 0.479107-2.715586v-2.758259z" fill="#f4ea29" opacity=".239" p-id="3472"></path></svg>