<?xml version="1.0" standalone="no"?><!DOCTYPE svg PUBLIC "-//W3C//DTD SVG 1.1//EN" "http://www.w3.org/Graphics/SVG/1.1/DTD/svg11.dtd"><svg t="1716365574091" class="icon" viewBox="0 0 1100 1024" version="1.1" xmlns="http://www.w3.org/2000/svg" p-id="6730" xmlns:xlink="http://www.w3.org/1999/xlink" width="214.84375" height="200"><path d="M134.1 264.309l28.033 20.023-20.023-12.014-8.01-8.01z m-64.074 8.01l-4.005 12.013-12.014 84.098-4.005-68.08 20.024-28.032z m816.954 48.055q40.047-4.004 44.052 28.033l-28.033-20.023q-24.028 4.004-16.019-8.01z m48.056 40.047l4.005 60.07h-8.01l4.005-60.07zM62.016 376.44l4.005 36.042h-8.01l4.005-36.042z m8.01 56.065l4.004 36.042h-8.009l4.005-36.042z m857 8.01l4.006 36.042h-8.01l4.005-36.042zM78.037 488.57l4.004 36.042h-8.01l4.005-36.042z m840.982 0l4.004 36.042h-8.01l4.006-36.042zM86.044 536.627l4.005 36.042h-8.01l4.005-36.042z m824.964 8.01l4.005 36.041h-8.01l4.005-36.042zM94.054 592.691l4.004 36.043H90.05l4.005-36.043z m808.945 8.01l4.005 36.042h-8.01L903 600.702z m-800.936 48.056l4.005 36.042h-8.01l4.005-36.042z m792.926 8.01l4.005 20.023h-8.01l4.005-20.024z m-8.009 32.037l4.005 12.014-60.07 68.08-24.028 8.009v-8.01q48.857-11.213 68.08-52.06l12.013-28.033z m-776.907 8.009l4.004 36.042h-8.01l4.006-36.042z m8.009 56.066l4.005 36.042h-8.01l4.005-36.042z m656.767 24.028l20.024 4.004-20.024 4.005v-8.01z m-72.084 8.009l44.051 4.005-44.051 4.004v-8.009z m-80.094 8.01l52.061 4.004-52.06 4.005v-8.01z m-72.084 8.009l52.061 4.004-52.06 4.005v-8.01z m-424.496 8.009l4.005 28.033h-8.01l4.005-28.033z m352.412 0l52.06 4.005-52.06 4.004v-8.009z m-72.084 8.01l52.06 4.004-52.06 4.005v-8.01z m-72.084 8.009l44.051 4.004-44.051 4.005v-8.01z m-80.094 8.01l52.06 4.004-52.06 4.004v-8.009z m-136.16 16.018l4.006 28.033h-8.01l4.005-28.033z m120.141 0l4.005 20.023-36.042 44.052q-68.08 16.018-84.098-20.024l20.023 12.014q68.08 16.019 84.098-20.023l12.014-36.042z" fill="#00B08B" opacity=".49" p-id="6731"></path><path d="M102.063 264.309q49.658-5.607 60.07 28.033l12.014 28.032h704.824l52.06 36.042v80.094l-16.018 56.065-16.019 160.188q-13.616 74.487-68.08 108.126l-64.074 24.028-144.169 8.01-8.009 8.009h-64.075l-8.01 8.009h-64.074l-8.01 8.01H406.42l-80.094 16.018h-72.084l-20.023 20.023q-1.602 38.445-28.033 52.061-68.08 16.019-84.098-20.023l8.009-72.084-8.01-8.01-8.009-104.121L74.03 484.566l-8.009-104.122-8.01-8.009v-72.084l20.024-28.033 24.028-8.01z m180.21 152.178q-24.027 8.009-16.018 40.046-40.047-8.009-48.056 16.019l8.01 8.01h40.046v40.046h-56.066v24.028h64.075v96.113q-24.028-16.02-16.018-64.075l-16.02-16.019-16.018 16.019q16.019 72.084-16.019 104.121-8.009 32.038 24.029 16.019l8.009-40.047 64.075 32.038 176.206 8.009 8.009-32.037H322.32l-16.018-8.01q-16.019-48.056 24.028-40.047l8.01-16.018-32.038-16.019v-40.047h32.037v-8.01h16.019l24.028-8.008 16.019-16.02 24.028-56.065q48.056-16.018 32.037 40.047-8.01 16.019-48.056 8.01v24.028h64.075l16.019-48.057-8.01-48.056h-120.14l-16.019 16.019v8.01h40.047l-8.01 40.046q-16.018 32.038-72.084 24.028-16.018-56.065 32.038-40.047 16.019-40.046-32.038-24.028l-8.009-24.028q8.01-24.028-8.01-16.018z m360.422 0l-16.019 16.018 8.01 24.028H522.553l-16.018 16.019 16.018 16.019h112.131v40.047h-88.103l-16.018 16.018v120.14l16.018 8.01h16.02V568.664l16.018-16.018h56.065v144.168l16.02 8.01 16.018-8.01V552.646h64.075q24.028 16.018 8.009 72.084l-56.065 16.019v24.028h72.084l16.018-24.028v-96.113l-8.009-16.018h-96.112V488.57h120.14l-8.01-32.038h-104.12l-8.01-16.018-24.028-24.028z m-272.318 128.15l-16.02 16.018v80.094l24.029 8.009h80.094l8.009-8.01h8.01v-88.102q-32.038-16.02-104.122-8.01z" fill="#04B982" opacity=".996" p-id="6732"></path><path d="M378.386 576.674h72.084v40.046h-72.084v-40.046z" fill="#04B982" opacity=".996" p-id="6733"></path><path d="M742.812 56.065h72.084l52.06 36.043q30.436 25.63 24.029 88.103-12.014 52.06-52.061 76.088-24.028 24.028-80.094 16.02-45.653-9.612-68.08-44.052-28.032-32.038-16.018-104.122l52.061-60.07 16.019-8.01zM430.447 128.15l104.121 8.01q65.677 26.43 100.117 84.097 27.232 38.445 24.028 100.117H278.27q-8.81-0.8-4.005-44.051 18.422-61.672 60.07-100.117l96.113-48.056zM278.269 416.487q18.422-5.607 12.014 12.014l8.01 28.032q44.852-15.217 32.037 24.028-51.26-16.82-32.038 40.047 57.668 12.014 72.085-28.033l8.009-36.042h-40.047V444.52l12.014-12.014h124.145l8.01 44.052-20.024 52.06h-60.07V504.59q36.843 10.413 48.056-12.014 18.422-53.662-36.042-36.042l-20.023 52.061-20.024 20.024-24.028 8.009-12.014-4.005v12.014h-32.037v40.047l32.037 12.014-12.014 20.023q-36.843-10.412-20.023 36.043l12.014 12.014h172.201l-12.014 32.037-176.206-8.01-60.07-32.037-8.01 40.047q-32.838 13.616-24.028-20.023 28.033-32.038 16.02-104.122l12.013-12.014 20.024 12.014q-8.81 48.857 12.014 68.08l4.004-96.113H210.19v-24.028h56.066v-40.047h-44.051l-4.005-12.014q11.213-21.625 48.056-12.014-8.01-30.435 12.014-40.046z m360.421 0l28.033 20.023 4.004 20.023H774.85l12.014 32.038h-120.14v40.047h92.107l12.014 12.014v96.112l-20.023 28.033h-68.08v-24.028l56.066-20.024q14.417-53.663-12.014-68.08h-60.07V692.81l-20.024 12.014-12.014-12.014V552.646h-60.07l-12.014 12.014V668.78l-20.023 4.005-12.014-12.014v-120.14l12.014-12.014h92.107V488.57H518.55l-12.014-20.024 12.014-12.014 116.135-4.004-8.009-24.028 12.014-12.014z" fill="#F3BE8A" opacity=".984" p-id="6734"></path><path d="M366.372 544.636q76.89-11.213 108.126 8.01v84.098l-12.014 4.005-8.01 8.009h-80.093l-20.023-8.01V556.65l12.014-12.014z m12.014 32.038v40.046h72.084v-40.046h-72.084z" fill="#F3BE8A" opacity=".984" p-id="6735"></path></svg>