<?xml version="1.0" standalone="no"?><!DOCTYPE svg PUBLIC "-//W3C//DTD SVG 1.1//EN" "http://www.w3.org/Graphics/SVG/1.1/DTD/svg11.dtd"><svg t="1709195091174" class="icon" viewBox="0 0 1024 1024" version="1.1" xmlns="http://www.w3.org/2000/svg" p-id="1795" xmlns:xlink="http://www.w3.org/1999/xlink" width="200" height="200"><path d="M895.634286 498.870857L877.714286 624.054857V804.571429a109.714286 109.714286 0 0 1-103.277715 109.531428L768 914.285714h-111.835429a109.714286 109.714286 0 0 1-104.118857-75.008L522.24 749.714286H329.142857a36.571429 36.571429 0 0 1-32.073143-18.980572l-1.865143-4.022857-36.571428-91.428571A36.571429 36.571429 0 0 1 292.571429 585.142857h426.130285l9.069715-54.272a73.142857 73.142857 0 0 1 51.931428-58.258286l5.851429-1.426285 66.706285-13.348572a36.571429 36.571429 0 0 1 43.373715 41.033143z m-79.725715 40.813714l-15.981714 3.218286-14.153143 84.845714A36.571429 36.571429 0 0 1 749.714286 658.285714H346.587429l7.314285 18.285715H548.571429a36.571429 36.571429 0 0 1 33.133714 21.065142l1.572571 3.949715 38.180572 114.541714a36.571429 36.571429 0 0 0 34.706285 25.014857H768a36.571429 36.571429 0 0 0 36.571429-36.571428v-182.857143l0.365714-5.156572 10.971428-76.873143zM367.872 109.714286a109.714286 109.714286 0 0 1 104.082286 75.008L501.76 274.285714H694.857143a36.571429 36.571429 0 0 1 32.073143 18.980572l1.865143 4.022857 36.571428 91.428571A36.571429 36.571429 0 0 1 731.428571 438.857143H305.225143L296.228571 493.129143a73.142857 73.142857 0 0 1-51.931428 58.258286l-5.851429 1.426285-66.706285 13.348572a36.571429 36.571429 0 0 1-43.373715-41.033143L146.285714 399.908571V219.428571a109.714286 109.714286 0 0 1 103.277715-109.531428L256 109.714286h111.872z m0 73.142857H256a36.571429 36.571429 0 0 0-36.571429 36.571428v182.857143l-0.365714 5.156572-11.008 76.836571 16.018286-3.181714 14.153143-84.845714A36.571429 36.571429 0 0 1 274.285714 365.714286h403.126857l-7.314285-18.285715H475.428571a36.571429 36.571429 0 0 1-33.133714-21.065142l-1.572571-3.949715-38.180572-114.541714A36.571429 36.571429 0 0 0 367.908571 182.857143z" fill="#17abe3" fill-opacity=".65" p-id="1796"></path></svg>