<?xml version="1.0" standalone="no"?><!DOCTYPE svg PUBLIC "-//W3C//DTD SVG 1.1//EN" "http://www.w3.org/Graphics/SVG/1.1/DTD/svg11.dtd"><svg t="1709265605057" class="icon" viewBox="0 0 1024 1024" version="1.1" xmlns="http://www.w3.org/2000/svg" p-id="2228" xmlns:xlink="http://www.w3.org/1999/xlink" width="200" height="200"><path d="M936.47 431.852c-9.006-7.248-22.18-5.817-29.404 3.256l-35.854 44.924c-1.174-17.363-3.472-34.855-7.119-52.39C819.364 211.44 609 72.718 394.253 117.73 179.483 162.782 41.65 374.514 86.378 590.67c44.73 216.203 255.092 354.926 469.862 309.871 78.064-16.364 145.169-55.384 197.687-108.122 0.194-0.174 0.393-0.346 0.587-0.564 0.935-0.956 1.258-2.04 2.192-3.037 1.541-2.608 2.647-5.687 2.647-8.941 0-9.548-7.724-17.32-17.232-17.32-5.12 0-9.592 2.344-12.76 5.904l-0.13-0.086c-47.681 47.79-108.86 83.033-179.698 97.88-194.476 40.798-384.982-84.858-425.48-280.616-40.518-195.758 84.315-387.523 278.792-428.324 194.476-40.757 384.982 84.902 425.48 280.66a376.21 376.21 0 0 1 6.51 44.968l-43.448-35.115c-9.03-7.248-22.181-5.816-29.405 3.257-7.25 9.071-5.795 22.309 3.213 29.6 0.042 0.045 0.042 0.045 0.086 0.045l80.061 64.718c0.023 0 0.064 0.042 0.085 0.042 4.56 3.689 10.202 5.121 15.582 4.47 5.424-0.563 10.616-3.123 14.281-7.724 0.023-0.042 0.044-0.087 0.044-0.087l64.282-80.647c0.024 0 0.024 0 0.063-0.044 7.231-9.076 5.798-22.313-3.209-29.606z" fill="" p-id="2229"></path><path d="M463.635 730.612c0 9.981 8.139 18.1 18.145 18.1 10.005 0 18.123-8.117 18.123-18.1h0.108V622.923h109.033v-0.173c10.007 0 18.123-8.16 18.123-18.145 0-10.025-8.117-18.141-18.123-18.141H500.011v-56.035h109.055v-0.176c9.983 0 18.1-8.117 18.1-18.144 0-10.026-8.117-18.144-18.1-18.144H500.009v-33.378l108.1-106.037-0.108-0.131c7.488-6.641 8.16-18.1 1.52-25.61-6.664-7.51-18.123-8.16-25.61-1.519L482.234 427.513l-106.949-105.04c-7.51-6.643-18.969-5.947-25.61 1.561-6.64 7.466-5.967 18.925 1.52 25.566l-0.109 0.131 112.464 109.99v34.244H354.494v0.088c-9.984 0-18.1 8.116-18.1 18.144 0 10.027 8.116 18.145 18.1 18.145v0.087H463.55v56.035H354.494v0.085c-9.984 0-18.123 8.16-18.123 18.145 0 10.025 8.138 18.141 18.123 18.141v0.088H463.55v107.688h0.085z" fill="" p-id="2230"></path></svg>