<?xml version="1.0" standalone="no"?><!DOCTYPE svg PUBLIC "-//W3C//DTD SVG 1.1//EN" "http://www.w3.org/Graphics/SVG/1.1/DTD/svg11.dtd"><svg t="1709265608132" class="icon" viewBox="0 0 1024 1024" version="1.1" xmlns="http://www.w3.org/2000/svg" p-id="2378" xmlns:xlink="http://www.w3.org/1999/xlink" width="200" height="200"><path d="M828.643 158.108H198.1c-54.79 0-99.352 44.574-99.352 99.352v428.761c0 54.79 44.563 99.364 99.352 99.364h354.628v73.786c0 19.181 10.782 36.152 28.158 44.297 6.733 3.147 13.836 4.697 20.893 4.697 11.152 0 22.143-3.887 31.166-11.407a24.366 24.366 0 0 0 2.106-1.978L737.99 785.585h90.653c54.79 0 99.352-44.574 99.352-99.364v-428.76c0.001-54.778-44.562-99.353-99.352-99.353z m51.967 528.113c0 28.656-23.323 51.978-51.967 51.978H727.74a23.712 23.712 0 0 0-17.261 7.462l-108.7 115.537-1.666-1.828v-79.697c0-22.871-18.603-41.474-41.486-41.474H198.1c-28.644 0-51.967-23.323-51.967-51.978v-428.76c0-28.656 23.323-51.967 51.967-51.967h630.543c28.644 0 51.967 23.311 51.967 51.967v428.76z" p-id="2379"></path><path d="M336.822 459.234m-50.443 0a50.443 50.443 0 1 0 100.886 0 50.443 50.443 0 1 0-100.886 0Z" p-id="2380"></path><path d="M513.372 459.234m-50.443 0a50.443 50.443 0 1 0 100.886 0 50.443 50.443 0 1 0-100.886 0Z" p-id="2381"></path><path d="M689.921 459.234m-50.443 0a50.443 50.443 0 1 0 100.886 0 50.443 50.443 0 1 0-100.886 0Z" p-id="2382"></path></svg>