<?xml version="1.0" standalone="no"?><!DOCTYPE svg PUBLIC "-//W3C//DTD SVG 1.1//EN" "http://www.w3.org/Graphics/SVG/1.1/DTD/svg11.dtd"><svg t="1716365677301" class="icon" viewBox="0 0 1024 1024" version="1.1" xmlns="http://www.w3.org/2000/svg" p-id="13876" xmlns:xlink="http://www.w3.org/1999/xlink" width="200" height="200"><path d="M512 512m-512 0a512 512 0 1 0 1024 0 512 512 0 1 0-1024 0Z" fill="#1296db" p-id="13877"></path><path d="M518.4 396.8c15.36 0 26.88-8.96 29.44-21.76L563.2 176.64c0-20.48-20.48-35.84-44.8-35.84S473.6 156.16 473.6 176.64l15.36 198.4c1.28 11.52 12.8 21.76 29.44 21.76zM416 454.4c8.96-15.36 8.96-30.72-1.28-37.12L256 311.04c-16.64-8.96-40.96 1.28-55.04 25.6-14.08 21.76-11.52 48.64 3.84 57.6l175.36 78.08c14.08 5.12 28.16-2.56 35.84-17.92zM620.8 454.4c8.96 15.36 24.32 21.76 34.56 17.92l175.36-78.08c16.64-8.96 17.92-34.56 3.84-57.6-14.08-23.04-39.68-34.56-55.04-25.6l-158.72 106.24c-8.96 7.68-8.96 24.32 0 37.12zM518.4 627.2c15.36 0 26.88 8.96 29.44 21.76L563.2 847.36c0 20.48-20.48 35.84-44.8 35.84S473.6 867.84 473.6 847.36l15.36-198.4c1.28-12.8 12.8-21.76 29.44-21.76zM620.8 582.4c8.96-15.36 24.32-21.76 34.56-17.92l175.36 78.08c16.64 8.96 17.92 35.84 3.84 58.88s-39.68 33.28-55.04 25.6l-158.72-107.52c-8.96-6.4-8.96-23.04 0-37.12zM416 582.4c8.96 15.36 8.96 30.72-1.28 38.4L256 725.76c-16.64 8.96-40.96-1.28-55.04-25.6-14.08-23.04-11.52-49.92 3.84-57.6l175.36-78.08c14.08-3.84 28.16 3.84 35.84 17.92z" fill="#dbdbdb" p-id="13878"></path></svg>