<?xml version="1.0" standalone="no"?><!DOCTYPE svg PUBLIC "-//W3C//DTD SVG 1.1//EN" "http://www.w3.org/Graphics/SVG/1.1/DTD/svg11.dtd"><svg t="1709195314131" class="icon" viewBox="0 0 1024 1024" version="1.1" xmlns="http://www.w3.org/2000/svg" p-id="1078" xmlns:xlink="http://www.w3.org/1999/xlink" width="200" height="200"><path d="M514.56 107.52c-223.232 0-404.48 181.76-404.48 404.48 0 223.232 181.76 404.48 404.48 404.48s404.48-181.248 404.48-404.48c0-222.72-181.248-404.48-404.48-404.48z m0 757.76c-195.072 0-353.28-158.72-353.28-353.28s158.72-353.28 353.28-353.28 353.28 158.72 353.28 353.28c0 195.072-158.208 353.28-353.28 353.28z" fill="#707070" p-id="1079"></path><path d="M732.672 413.184c0 19.456-5.632 38.912-15.872 56.32-15.872 25.6-40.96 44.544-70.144 52.736-6.144 2.048-12.8 3.072-19.968 3.584-13.824 0-25.6-11.264-25.6-25.088v-0.512c0-14.336 11.264-25.6 25.6-25.6 1.024 0 2.048 0 4.096-1.024 19.456-5.632 34.304-16.896 43.008-31.232 5.632-9.216 8.192-18.944 8.192-29.696 0-34.816-32.256-63.488-72.192-63.488-13.824 0-27.136 3.584-38.912 10.24-20.48 11.776-33.28 31.744-33.28 53.248V604.16c0 39.936-22.016 76.288-58.368 97.28-18.944 11.264-40.96 17.408-64 17.408-68.096 0-122.88-51.2-122.88-114.176 0-19.456 5.632-38.912 15.872-56.32 16.384-25.6 40.96-44.544 70.144-52.736 7.68-2.048 13.824-3.072 19.968-3.072 14.336 0 25.6 11.264 25.6 25.6s-11.264 25.6-25.6 25.6c-1.024 0-2.048 0-4.096 0.512-19.456 5.12-34.304 16.384-42.496 30.72-5.632 9.216-8.192 18.944-8.192 29.696 0 34.816 32.256 63.488 71.68 63.488 13.824 0 27.136-3.584 38.912-10.24 20.48-11.776 33.28-31.744 33.28-53.248V412.672c0-39.936 22.016-76.288 58.88-97.28 19.456-11.264 41.472-16.896 64-16.896 67.072 0.512 122.368 51.712 122.368 114.688z" fill="#707070" p-id="1080"></path></svg>