<?xml version="1.0" standalone="no"?><!DOCTYPE svg PUBLIC "-//W3C//DTD SVG 1.1//EN" "http://www.w3.org/Graphics/SVG/1.1/DTD/svg11.dtd"><svg t="1709524614728" class="icon" viewBox="0 0 1024 1024" version="1.1" xmlns="http://www.w3.org/2000/svg" p-id="2080" xmlns:xlink="http://www.w3.org/1999/xlink" width="200" height="200"><path d="M79.438769 85.858462v848.974769c0 46.867692 37.966769 84.873846 84.795077 84.873846h703.527385c38.478769 0 59.628308-23.827692 59.628307-67.662769 0-29.262769-25.088-59.667692-59.628307-59.667693H246.429538A42.535385 42.535385 0 0 1 204.012308 849.92a42.535385 42.535385 0 0 1 42.41723-42.456615h596.164924c46.867692 0 84.795077-37.966769 84.795076-84.873847V85.858462A84.834462 84.834462 0 0 0 842.594462 0.984615H545.870769v403.02277c0 5.513846-2.126769 11.027692-6.144 15.28123a21.385846 21.385846 0 0 1-30.129231 0c-5.513846-5.750154-90.939077-76.8-90.939076-76.8S333.193846 413.538462 327.68 419.249231a21.385846 21.385846 0 0 1-30.089846 0 22.291692 22.291692 0 0 1-6.144-15.281231V0.984615H164.233846C117.366154 0.984615 79.438769 38.951385 79.438769 85.858462z" fill="#eb425e" p-id="2081"></path></svg>