<?xml version="1.0" standalone="no"?><!DOCTYPE svg PUBLIC "-//W3C//DTD SVG 1.1//EN" "http://www.w3.org/Graphics/SVG/1.1/DTD/svg11.dtd"><svg t="1709195073498" class="icon" viewBox="0 0 1024 1024" version="1.1" xmlns="http://www.w3.org/2000/svg" p-id="1225" xmlns:xlink="http://www.w3.org/1999/xlink" width="200" height="200"><path d="M741.504 347.7248l-22.2208 6.0928-6.90688-25.18528 22.2208-6.0928z" fill="#1296db" p-id="1226"></path><path d="M364.544 287.232c-6.144-23.04 7.168-47.104 30.72-53.248l228.864-62.464c23.04-6.144 47.104 7.168 53.248 30.72l11.264 40.448 22.016-6.144-16.384-60.928c-8.192-30.72-40.448-49.152-71.168-40.448l-245.248 67.072c-30.72 8.192-49.152 40.448-40.448 71.168l7.68 28.672c7.68-4.608 14.848-7.68 21.504-9.216l-2.048-5.632z" fill="#1296db" p-id="1227"></path><path d="M802.46272 569.77408l-22.2208 6.0928-6.76352-24.69376 22.2208-6.0928zM771.82464 459.09504l-22.2208 6.0928-6.90176-25.18528 22.2208-6.0928z" fill="#1296db" p-id="1228"></path><path d="M819.2 719.36c6.144 23.04-7.168 47.104-30.72 53.248L559.616 835.072c-23.04 6.144-47.104-7.168-53.248-30.72l-102.4-373.76c-13.312-5.632-23.04-11.776-28.16-15.36l113.664 414.72c8.192 30.72 40.448 49.152 71.168 40.448l245.248-67.072c30.72-8.192 49.152-40.448 40.448-71.168l-21.504-78.848-22.016 6.144 16.384 59.904z" fill="#1296db" p-id="1229"></path><path d="M701.44 571.392c-24.064 6.656-48.64-7.68-55.296-31.232-6.656-24.064 7.68-48.64 31.232-54.784l72.192-19.968-6.656-25.088-72.192 19.968-33.28 9.216c-24.064 6.656-48.64-7.68-54.784-31.232-6.656-24.064 7.68-48.64 31.232-54.784l105.472-29.184-6.656-25.088L640 348.672c-24.064 6.656-48.64-7.68-54.784-31.232-6.656-24.064 7.68-48.64 31.232-54.784l72.192-19.968-11.264-40.448c-6.144-23.04-30.208-36.864-53.248-30.72l-228.864 62.464c-23.04 6.144-36.864 30.208-30.72 53.248l1.536 5.12c1.024-0.512 2.56-0.512 3.584-1.024 14.336-2.56 27.136 1.536 37.888 7.168 1.536 0.512 4.096 1.536 7.168 3.584 0.512 0 1.024 0.512 1.024 0.512 0.512 0 0.512 0.512 1.024 0.512s0.512 0.512 1.024 0.512 0.512 0.512 1.024 0.512 0.512 0.512 1.024 0.512 1.024 0.512 1.024 0.512c0.512 0.512 1.024 0.512 1.536 1.024 0.512 0 0.512 0.512 1.024 0.512s1.024 0.512 1.024 0.512c0.512 0 0.512 0.512 1.024 0.512 0.512 0.512 1.024 0.512 1.536 1.024l0.512 0.512 3.072 1.536c0.512 0 0.512 0.512 1.024 0.512 0.512 0.512 1.024 0.512 1.536 1.024 0.512 0 0.512 0.512 1.024 0.512 1.536 1.024 3.584 2.048 5.632 3.584 0.512 0 0.512 0.512 1.024 0.512 0.512 0.512 1.024 0.512 1.536 1.024 0.512 0 1.024 0.512 1.024 0.512 38.912 24.064 94.208 60.416 94.208 60.416-7.68 43.52-29.696 61.952-77.312 62.976h-8.704c-10.752 0-36.864-6.656-36.864-6.656-4.096-1.536-7.68-2.56-11.264-4.096l102.4 373.76c6.144 23.04 30.208 36.864 53.248 30.72l228.864-62.464c23.04-6.144 36.864-30.208 30.72-53.248l-16.384-58.88-62.976 17.408c-23.552 6.144-47.616-7.168-53.76-30.72-6.144-23.552 7.168-47.616 30.72-53.76l62.976-17.408-6.656-24.576-71.168 19.456z" fill="#ffffff" p-id="1230"></path><path d="M343.552 302.592c-26.624 17.408-44.544 46.592-44.544 46.592-10.752 20.992-26.112 71.68-26.112 88.576 0 17.408 1.536 27.136 25.088 84.992 23.552 57.856-13.824 86.528-30.72 101.376-16.896 14.848-75.776 61.952-75.776 61.952l-22.528 20.992c-22.528 20.992 1.536 47.616 1.536 47.616l123.904 107.52 30.72 21.504c30.72 21.504 54.272-14.848 54.272-14.848l86.016-121.344-91.136-333.312c0.512 0.512 1.536 1.024 2.56 1.536l-31.232-114.688c-1.024 1.024-1.536 1.536-2.048 1.536z" fill="#0FAAFF" p-id="1231"></path><path d="M366.08 292.352c-6.144 1.536-13.824 4.608-21.504 9.216l31.232 114.688c4.608 3.072 14.336 9.728 28.16 15.36l-37.888-139.264zM452.096 442.368h8.704c47.616-1.024 69.632-19.968 77.312-62.976 0 0-55.296-35.84-94.208-60.416-0.512 0-1.024-0.512-1.024-0.512-0.512-0.512-1.024-0.512-1.536-1.024-0.512 0-0.512-0.512-1.024-0.512-2.048-1.024-3.584-2.048-5.632-3.584-0.512 0-0.512-0.512-1.024-0.512-0.512-0.512-1.024-0.512-1.536-1.024-0.512 0-0.512-0.512-1.024-0.512l-3.072-1.536-0.512-0.512c-0.512-0.512-1.024-0.512-1.536-1.024-0.512 0-0.512-0.512-1.024-0.512s-1.024-0.512-1.024-0.512c-0.512 0-0.512-0.512-1.024-0.512-0.512-0.512-1.024-0.512-1.536-1.024-0.512 0-1.024-0.512-1.024-0.512-0.512 0-0.512-0.512-1.024-0.512s-0.512-0.512-1.024-0.512-0.512-0.512-1.024-0.512-0.512-0.512-1.024-0.512-1.024-0.512-1.024-0.512c-3.072-1.536-5.632-2.56-7.168-3.584-10.752-5.632-23.552-9.728-37.888-7.168-1.024 0-2.56 0.512-3.584 1.024l38.4 139.264c3.584 1.536 7.168 3.072 11.264 4.096-0.512-0.512 25.088 6.144 35.84 6.144z" fill="#0FAAFF" p-id="1232"></path><path d="M863.232 598.528c-6.144-23.552-30.208-36.864-53.76-30.72l-7.168 2.048 23.04 84.48 7.168-2.048c23.552-6.144 37.376-30.208 30.72-53.76z" fill="#0FAAFF" p-id="1233"></path><path d="M803.10784 660.23936l-23.14752-84.43392 22.2208-6.0928 23.1424 84.43392z" fill="#0FAAFF" p-id="1234"></path><path d="M686.592 647.168c6.144 23.552 30.208 36.864 53.76 30.72l62.976-17.408-23.04-84.48-62.976 17.408c-23.04 6.144-36.864 30.208-30.72 53.76zM812.544 540.672c24.064-6.656 37.888-31.232 31.232-54.784-6.656-24.064-31.232-37.888-54.784-31.232l-16.896 4.608 23.552 86.528 16.896-5.12zM795.42784 545.3824l-22.2208 6.0928-23.69024-86.41024 22.2208-6.0928z" fill="#0FAAFF" p-id="1235"></path><path d="M646.144 540.16c6.656 24.064 31.232 37.888 54.784 31.232l72.192-19.968-23.552-86.528-72.192 19.968c-23.552 6.656-37.376 31.232-31.232 55.296zM782.336 429.568c24.064-6.656 37.888-31.232 31.232-54.784-6.656-24.064-31.232-37.888-54.784-31.232l-16.896 4.608 23.552 86.528 16.896-5.12zM765.10208 434.01728l-22.2208 6.0928-23.68512-86.41536 22.2208-6.0928zM582.144 437.76c6.656 24.064 31.232 37.888 54.784 31.232l33.28-9.216 72.192-19.968-23.552-86.528-105.472 29.184c-23.552 6.656-37.376 31.232-31.232 55.296zM751.616 317.952c24.064-6.656 37.888-31.232 31.232-54.784s-31.232-37.888-54.784-31.232l-16.896 4.608 23.552 86.528 16.896-5.12z" fill="#0FAAFF" p-id="1236"></path><path d="M734.6944 322.65728l-22.2208 6.0928-23.69024-86.41024 22.2208-6.0928z" fill="#0FAAFF" p-id="1237"></path><path d="M585.216 316.928c6.656 24.064 31.232 37.888 54.784 31.232l72.192-19.968-23.552-86.528-72.192 19.968c-23.552 7.168-37.888 31.744-31.232 55.296z" fill="#0FAAFF" p-id="1238"></path></svg>